HIERARCHY
ROOT hip
{
  OFFSET 5.70873 43.8894 -1.52928
  CHANNELS 6 Xposition Yposition Zposition Zrotation Xrotation Yrotation
  JOINT abdomen
  {
    OFFSET 0 5.99393 0.287273
    CHANNELS 6 Xposition Yposition Zposition Zrotation Xrotation Yrotation
    JOINT chest
    {
      OFFSET 0 6.65865 -0.856112
      CHANNELS 6 Xposition Yposition Zposition Zrotation Xrotation Yrotation
      JOINT neck
      {
        OFFSET 0 8.65624 -1.42685
        CHANNELS 6 Xposition Yposition Zposition Zrotation Xrotation Yrotation
        JOINT head
        {
          OFFSET 0 3.80999 -0.190247
          CHANNELS 6 Xposition Yposition Zposition Zrotation Xrotation Yrotation
          End Site
          {
            OFFSET 0 0 0
          }
        }
      }
      JOINT rCollar
      {
        OFFSET -1.4963 7.5744 -1.52136
        CHANNELS 6 Xposition Yposition Zposition Zrotation Xrotation Yrotation
        JOINT rShldr
        {
          OFFSET -5.47506 -0.905672 0.485692
          CHANNELS 6 Xposition Yposition Zposition Zrotation Xrotation Yrotation
          JOINT rForeArm
          {
            OFFSET -11.3069 -0.201091 0.618544
            CHANNELS 6 Xposition Yposition Zposition Zrotation Xrotation Yrotation
            JOINT rHand
            {
              OFFSET -9.61414 -0.254739 3.48553
              CHANNELS 6 Xposition Yposition Zposition Zrotation Xrotation Yrotation
              JOINT rThumb1
              {
                OFFSET 0.176263 -0.07068 1.26622
                CHANNELS 6 Xposition Yposition Zposition Zrotation Xrotation Yrotation
                JOINT rThumb2
                {
                  OFFSET -1.04683 -0.546484 1.82182
                  CHANNELS 6 Xposition Yposition Zposition Zrotation Xrotation Yrotation
                  JOINT rThumb3
                  {
                    OFFSET -0.993472 -0.621916 0.655506
                    CHANNELS 6 Xposition Yposition Zposition Zrotation Xrotation Yrotation
                    End Site
                    {
                      OFFSET -0.996134 -0.66263 0.644615
                    }
                  }
                }
              }
              JOINT rIndex1
              {
                OFFSET -2.64253 0.566363 2.4162
                CHANNELS 6 Xposition Yposition Zposition Zrotation Xrotation Yrotation
                JOINT rIndex2
                {
                  OFFSET -1.39394 -0.635138 0.899356
                  CHANNELS 6 Xposition Yposition Zposition Zrotation Xrotation Yrotation
                  JOINT rIndex3
                  {
                    OFFSET -0.622395 -0.856016 0.402182
                    CHANNELS 6 Xposition Yposition Zposition Zrotation Xrotation Yrotation
                    End Site
                    {
                      OFFSET -0.472476 -0.801802 0.34216
                    }
                  }
                }
              }
              JOINT rMid1
              {
                OFFSET -3.20814 0.514427 1.52547
                CHANNELS 6 Xposition Yposition Zposition Zrotation Xrotation Yrotation
                JOINT rMid2
                {
                  OFFSET -1.56545 -0.497974 0.68919
                  CHANNELS 6 Xposition Yposition Zposition Zrotation Xrotation Yrotation
                  JOINT rMid3
                  {
                    OFFSET -0.679943 -1.17582 0.444246
                    CHANNELS 6 Xposition Yposition Zposition Zrotation Xrotation Yrotation
                    End Site
                    {
                      OFFSET -0.343874 -0.941341 0.267611
                    }
                  }
                }
              }
              JOINT rRing1
              {
                OFFSET -3.47877 0.200518 0.597719
                CHANNELS 6 Xposition Yposition Zposition Zrotation Xrotation Yrotation
                JOINT rRing2
                {
                  OFFSET -1.28208 -0.53155 0.44672
                  CHANNELS 6 Xposition Yposition Zposition Zrotation Xrotation Yrotation
                  JOINT rRing3
                  {
                    OFFSET -0.710288 -0.970167 0.4032
                    CHANNELS 6 Xposition Yposition Zposition Zrotation Xrotation Yrotation
                    End Site
                    {
                      OFFSET -0.403228 -0.950952 0.378354
                    }
                  }
                }
              }
              JOINT rPinky1
              {
                OFFSET -3.42483 -0.278904 -0.240415
                CHANNELS 6 Xposition Yposition Zposition Zrotation Xrotation Yrotation
                JOINT rPinky2
                {
                  OFFSET -1.05787 -0.635999 0.156459
                  CHANNELS 6 Xposition Yposition Zposition Zrotation Xrotation Yrotation
                  JOINT rPinky3
                  {
                    OFFSET -0.42815 -0.754232 0.287187
                    CHANNELS 6 Xposition Yposition Zposition Zrotation Xrotation Yrotation
                    End Site
                    {
                      OFFSET -0.235717 -0.725605 0.279416
                    }
                  }
                }
              }
            }
          }
        }
      }
      JOINT lCollar
      {
        OFFSET 1.4963 7.5744 -1.52136
        CHANNELS 6 Xposition Yposition Zposition Zrotation Xrotation Yrotation
        JOINT lShldr
        {
          OFFSET 5.47506 -0.905672 0.485692
          CHANNELS 6 Xposition Yposition Zposition Zrotation Xrotation Yrotation
          JOINT lForeArm
          {
            OFFSET 11.3069 -0.201091 0.618544
            CHANNELS 6 Xposition Yposition Zposition Zrotation Xrotation Yrotation
            JOINT lHand
            {
              OFFSET 9.61414 -0.254739 3.48553
              CHANNELS 6 Xposition Yposition Zposition Zrotation Xrotation Yrotation
              JOINT lThumb1
              {
                OFFSET -0.176263 -0.07068 1.26622
                CHANNELS 6 Xposition Yposition Zposition Zrotation Xrotation Yrotation
                JOINT lThumb2
                {
                  OFFSET 1.04683 -0.546484 1.82182
                  CHANNELS 6 Xposition Yposition Zposition Zrotation Xrotation Yrotation
                  JOINT lThumb3
                  {
                    OFFSET 0.993472 -0.621916 0.655506
                    CHANNELS 6 Xposition Yposition Zposition Zrotation Xrotation Yrotation
                    End Site
                    {
                      OFFSET 0.996134 -0.66263 0.644615
                    }
                  }
                }
              }
              JOINT lIndex1
              {
                OFFSET 2.64253 0.566363 2.4162
                CHANNELS 6 Xposition Yposition Zposition Zrotation Xrotation Yrotation
                JOINT lIndex2
                {
                  OFFSET 1.39394 -0.635138 0.899356
                  CHANNELS 6 Xposition Yposition Zposition Zrotation Xrotation Yrotation
                  JOINT lIndex3
                  {
                    OFFSET 0.622395 -0.856016 0.402182
                    CHANNELS 6 Xposition Yposition Zposition Zrotation Xrotation Yrotation
                    End Site
                    {
                      OFFSET 0.472476 -0.801802 0.34216
                    }
                  }
                }
              }
              JOINT lMid1
              {
                OFFSET 3.20814 0.514427 1.52547
                CHANNELS 6 Xposition Yposition Zposition Zrotation Xrotation Yrotation
                JOINT lMid2
                {
                  OFFSET 1.56545 -0.497974 0.68919
                  CHANNELS 6 Xposition Yposition Zposition Zrotation Xrotation Yrotation
                  JOINT lMid3
                  {
                    OFFSET 0.679943 -1.17582 0.444246
                    CHANNELS 6 Xposition Yposition Zposition Zrotation Xrotation Yrotation
                    End Site
                    {
                      OFFSET 0.343874 -0.941341 0.267611
                    }
                  }
                }
              }
              JOINT lRing1
              {
                OFFSET 3.47877 0.200518 0.597719
                CHANNELS 6 Xposition Yposition Zposition Zrotation Xrotation Yrotation
                JOINT lRing2
                {
                  OFFSET 1.28208 -0.53155 0.44672
                  CHANNELS 6 Xposition Yposition Zposition Zrotation Xrotation Yrotation
                  JOINT lRing3
                  {
                    OFFSET 0.710288 -0.970167 0.4032
                    CHANNELS 6 Xposition Yposition Zposition Zrotation Xrotation Yrotation
                    End Site
                    {
                      OFFSET 0.403228 -0.950952 0.378354
                    }
                  }
                }
              }
              JOINT lPinky1
              {
                OFFSET 3.42483 -0.278904 -0.240415
                CHANNELS 6 Xposition Yposition Zposition Zrotation Xrotation Yrotation
                JOINT lPinky2
                {
                  OFFSET 1.05787 -0.635999 0.156459
                  CHANNELS 6 Xposition Yposition Zposition Zrotation Xrotation Yrotation
                  JOINT lPinky3
                  {
                    OFFSET 0.42815 -0.754232 0.287187
                    CHANNELS 6 Xposition Yposition Zposition Zrotation Xrotation Yrotation
                    End Site
                    {
                      OFFSET 0.235717 -0.725605 0.279416
                    }
                  }
                }
              }
            }
          }
        }
      }
    }
  }
  JOINT rThigh
  {
    OFFSET -4.17848 -1.02486 0.046356
    CHANNELS 6 Xposition Yposition Zposition Zrotation Xrotation Yrotation
    JOINT rShin
    {
      OFFSET 1.27155 -17.465 -0.237699
      CHANNELS 6 Xposition Yposition Zposition Zrotation Xrotation Yrotation
      JOINT rFoot
      {
        OFFSET 0.529163 -17.3815 -1.19582
        CHANNELS 6 Xposition Yposition Zposition Zrotation Xrotation Yrotation
        JOINT rToe
        {
          OFFSET -0.711591 -4.4863 4.0596
          CHANNELS 6 Xposition Yposition Zposition Zrotation Xrotation Yrotation
          End Site
          {
            OFFSET -0.869915 -1.10655 1.99006
          }
        }
      }
    }
  }
  JOINT lThigh
  {
    OFFSET 4.17848 -1.02486 0.046356
    CHANNELS 6 Xposition Yposition Zposition Zrotation Xrotation Yrotation
    JOINT lShin
    {
      OFFSET -1.27155 -17.465 -0.237699
      CHANNELS 6 Xposition Yposition Zposition Zrotation Xrotation Yrotation
      JOINT lFoot
      {
        OFFSET -0.529163 -17.3815 -1.19582
        CHANNELS 6 Xposition Yposition Zposition Zrotation Xrotation Yrotation
        JOINT lToe
        {
          OFFSET 0.711591 -4.4863 4.0596
          CHANNELS 6 Xposition Yposition Zposition Zrotation Xrotation Yrotation
          End Site
          {
            OFFSET 0.869915 -1.10655 1.99006
          }
        }
      }
    }
  }
}
MOTION
Frames:	4
Frame Time:	0.0333333
-17.3722 60.4126 -9.73731 2.99508 -40.1194 27.8548 -3.55271e-015 5.99393 0.287273 -8.25588 10.7415 -11.3795 0 6.65865 -0.856112 -14.5807 22.8348 -21.6978 7.10543e-015 8.65624 -1.42685 -1.89529 -43.1493 29.5855 0 3.80999 -0.190247 -14.4847 4.90679 6.49302 -1.4963 7.5744 -1.52136 -9.41228 -0.265705 21.3088 -5.47506 -0.905672 0.485692 53.6897 -3.12206 48.9404 -11.3069 -0.201091 0.618544 29.2794 -13.133 77.5717 -9.61414 -0.254739 3.48553 -1.38545 -56.0442 18.7167 0.176263 -0.07068 1.26622 -15.6873 50.412 18.5118 -1.04683 -0.546484 1.82182 -0.515864 0.557674 -1.56014 -0.993472 -0.621916 0.655506 -4.32711 5.93884 -14.9479 -2.64253 0.566363 2.4162 -23.6257 5.46673 -14.517 -1.39394 -0.635138 0.899356 39.8963 7.70367 -8.81732 -0.622395 -0.856016 0.402182 45.8626 8.24915 -10.4911 -3.20814 0.514427 1.52547 -0.840596 5.94968 -9.82409 -1.56545 -0.497974 0.68919 52.741 10.5331 -13.0891 -0.679943 -1.17582 0.444246 44.4809 9.78112 -10.5176 -3.47877 0.200518 0.597719 16.3707 -0.644804 -5.846 -1.28208 -0.53155 0.44672 37.8362 9.71783 -10.3213 -0.710288 -0.970167 0.4032 39.1355 9.91107 -10.7658 -3.42483 -0.278904 -0.240415 24.5434 -1.90443 -2.26371 -1.05787 -0.635999 0.156459 31.0685 9.47911 -7.89248 -0.42815 -0.754232 0.287187 30.9983 9.4636 -7.86989 1.4963 7.5744 -1.52136 18.3362 0.249755 1.71009 5.47506 -0.905672 0.485692 -68.2515 6.11167 -13.4741 11.3069 -0.201091 0.618544 -34.8253 8.42407 -82.0763 9.61414 -0.254739 3.48553 -47.1122 -30.6816 28.4198 -0.176263 -0.07068 1.26622 24.2782 38.4819 -35.5021 1.04683 -0.546484 1.82182 -6.53181 -1.24818 -11.4632 0.993472 -0.621916 0.655506 6.45118 2.66722 11.8095 2.64253 0.566363 2.4162 -5.18976 4.48312 12.5249 1.39394 -0.635138 0.899356 -36.9452 6.74313 17.0314 0.622395 -0.856016 0.402182 -38.0065 6.76619 17.5559 3.20814 0.514427 1.52547 -1.48522 -0.683638 1.67106 1.56545 -0.497974 0.68919 -44.4869 8.35704 21.4002 0.679943 -1.17582 0.444246 -9.36099 3.19906 3.99162 3.47877 0.200518 0.597719 -8.07663 -2.63753 5.99024 1.28208 -0.53155 0.44672 -14.7811 5.15023 7.29472 0.710288 -0.970167 0.4032 -16.2802 5.55289 8.08476 3.42483 -0.278904 -0.240415 11.7678 -11.303 2.60138 1.05787 -0.635999 0.156459 -18.8959 6.82266 9.38291 0.42815 -0.754232 0.287187 -9.18829 3.76105 4.34943 -4.17848 -1.02486 0.046356 1.88392 -61.8893 -30.9965 1.27155 -17.465 -0.237699 33.9597 67.9058 -25.6457 0.529163 -17.3815 -1.19582 15.1541 12.3665 -12.1026 -0.711591 -4.4863 4.0596 2.18188 15.1745 -0.700291 4.17848 -1.02486 0.046356 25.9754 -50.9149 29.7561 -1.27155 -17.465 -0.237699 155.11 81.1803 -159.379 -0.529163 -17.3815 -1.19582 1.47206 28.6961 -11.8312 0.711591 -4.4863 4.0596 0.0392407 -0.319861 0.0161786 
-17.3686 60.4266 -9.7213 3.04095 -39.9181 27.7189 0 5.99393 0.287273 -8.1598 10.349 -11.4839 0 6.65865 -0.856112 -14.4199 22.0528 -21.9506 0 8.65624 -1.42685 -1.46771 -45.6838 29.6226 1.42109e-014 3.80999 -0.190247 -13.4209 3.0684 6.54821 -1.4963 7.5744 -1.52136 -10.2802 -0.268132 20.5483 -5.47506 -0.905672 0.485692 54.8478 -1.97053 49.199 -11.3069 -0.201091 0.618544 29.0407 -12.8455 77.2302 -9.61414 -0.254739 3.48553 -0.945057 -55.6559 18.9101 0.176263 -0.07068 1.26622 -15.6873 50.412 18.5118 -1.04683 -0.546484 1.82182 -0.515863 0.5577 -1.56014 -0.993472 -0.621916 0.655506 -4.32714 5.93887 -14.9479 -2.64253 0.566363 2.4162 -23.6257 5.46673 -14.517 -1.39394 -0.635138 0.899356 39.8962 7.70374 -8.81735 -0.622395 -0.856016 0.402182 45.8626 8.24925 -10.4911 -3.20814 0.514427 1.52547 -0.840538 5.94952 -9.8241 -1.56545 -0.497974 0.68919 52.741 10.5332 -13.0892 -0.679943 -1.17582 0.444246 44.4809 9.78113 -10.5176 -3.47877 0.200518 0.597719 16.3706 -0.644706 -5.84603 -1.28208 -0.53155 0.44672 37.8362 9.71786 -10.3213 -0.710288 -0.970167 0.4032 39.1354 9.91117 -10.7658 -3.42483 -0.278904 -0.240415 24.5434 -1.90443 -2.26372 -1.05787 -0.635999 0.156459 31.0685 9.47917 -7.89246 -0.42815 -0.754232 0.287187 30.9983 9.46367 -7.86985 1.4963 7.5744 -1.52136 16.2753 0.265509 1.83539 5.47506 -0.905672 0.485692 -67.0363 5.4883 -12.5161 11.3069 -0.201091 0.618544 -35.1882 9.76465 -82.1403 9.61414 -0.254739 3.48553 -46.5226 -30.8296 28.7219 -0.176263 -0.07068 1.26622 24.2783 38.482 -35.5021 1.04683 -0.546484 1.82182 -6.53181 -1.24818 -11.4632 0.993472 -0.621916 0.655506 6.45118 2.66723 11.8095 2.64253 0.566363 2.4162 -5.18976 4.48311 12.5249 1.39394 -0.635138 0.899356 -36.9452 6.74315 17.0314 0.622395 -0.856016 0.402182 -38.0065 6.76615 17.5558 3.20814 0.514427 1.52547 -1.48522 -0.683666 1.67106 1.56545 -0.497974 0.68919 -44.4869 8.35704 21.4002 0.679943 -1.17582 0.444246 -9.36099 3.19905 3.99164 3.47877 0.200518 0.597719 -8.07663 -2.63754 5.99023 1.28208 -0.53155 0.44672 -14.7811 5.1502 7.29471 0.710288 -0.970167 0.4032 -16.2802 5.5529 8.08479 3.42483 -0.278904 -0.240415 11.7678 -11.303 2.60138 1.05787 -0.635999 0.156459 -18.8959 6.82264 9.3829 0.42815 -0.754232 0.287187 -9.18829 3.76104 4.34943 -4.17848 -1.02486 0.046356 2.1661 -61.9859 -30.4822 1.27155 -17.465 -0.237699 34.0317 67.9399 -25.7179 0.529163 -17.3815 -1.19582 15.1153 12.3075 -12.0979 -0.711591 -4.4863 4.0596 2.18746 15.2108 -0.702728 4.17848 -1.02486 0.046356 25.9032 -50.837 29.7453 -1.27155 -17.465 -0.237699 154.832 81.3046 -159.122 -0.529163 -17.3815 -1.19582 1.40786 28.4953 -11.8173 0.711591 -4.4863 4.0596 0.0451492 -0.368056 0.0186526 
-17.3655 60.4531 -9.69771 3.09009 -39.6835 27.5701 0 5.99393 0.287273 -8.05623 9.94373 -11.5726 0 6.65865 -0.856112 -14.252 21.2423 -22.172 7.10543e-015 8.65624 -1.42685 -0.882536 -47.7976 29.2626 0 3.80999 -0.190247 -12.011 0.995929 6.50245 -1.4963 7.5744 -1.52136 -11.0603 -0.269501 19.651 -5.47506 -0.905672 0.485692 56.0633 -0.746371 49.4807 -11.3069 -0.201091 0.618544 28.789 -12.4731 76.8585 -9.61414 -0.254739 3.48553 -0.59012 -55.1654 18.984 0.176263 -0.07068 1.26622 -15.6873 50.412 18.5118 -1.04683 -0.546484 1.82182 -0.515895 0.557724 -1.56011 -0.993472 -0.621916 0.655506 -4.32718 5.93894 -14.9478 -2.64253 0.566363 2.4162 -23.6257 5.46674 -14.517 -1.39394 -0.635138 0.899356 39.8963 7.7036 -8.81729 -0.622395 -0.856016 0.402182 45.8626 8.2491 -10.4911 -3.20814 0.514427 1.52547 -0.840547 5.94952 -9.82411 -1.56545 -0.497974 0.68919 52.741 10.533 -13.0891 -0.679943 -1.17582 0.444246 44.4809 9.78113 -10.5176 -3.47877 0.200518 0.597719 16.3707 -0.64491 -5.84597 -1.28208 -0.53155 0.44672 37.8362 9.7179 -10.3213 -0.710288 -0.970167 0.4032 39.1355 9.91096 -10.7658 -3.42483 -0.278904 -0.240415 24.5433 -1.90443 -2.26372 -1.05787 -0.635999 0.156459 31.0685 9.47925 -7.89247 -0.42815 -0.754232 0.287187 30.9983 9.46351 -7.86991 1.4963 7.5744 -1.52136 14.18 0.263377 1.88763 5.47506 -0.905672 0.485692 -65.8459 4.79397 -11.4291 11.3069 -0.201091 0.618544 -35.5829 11.1616 -82.2536 9.61414 -0.254739 3.48553 -45.9219 -30.9172 29.1069 -0.176263 -0.07068 1.26622 24.2782 38.4818 -35.502 1.04683 -0.546484 1.82182 -6.53182 -1.2482 -11.4632 0.993472 -0.621916 0.655506 6.45118 2.66722 11.8095 2.64253 0.566363 2.4162 -5.18977 4.48309 12.5249 1.39394 -0.635138 0.899356 -36.9452 6.74313 17.0314 0.622395 -0.856016 0.402182 -38.0065 6.76608 17.5558 3.20814 0.514427 1.52547 -1.48523 -0.683697 1.67106 1.56545 -0.497974 0.68919 -44.4869 8.35702 21.4002 0.679943 -1.17582 0.444246 -9.361 3.19903 3.99166 3.47877 0.200518 0.597719 -8.07663 -2.63756 5.99022 1.28208 -0.53155 0.44672 -14.7811 5.15021 7.29473 0.710288 -0.970167 0.4032 -16.2802 5.55285 8.08482 3.42483 -0.278904 -0.240415 11.7678 -11.3031 2.60138 1.05787 -0.635999 0.156459 -18.8959 6.82263 9.38292 0.42815 -0.754232 0.287187 -9.18829 3.76106 4.34943 -4.17848 -1.02486 0.046356 2.57981 -62.0915 -29.8465 1.27155 -17.465 -0.237699 34.0538 67.9636 -25.7698 0.529163 -17.3815 -1.19582 14.9873 12.294 -12.0539 -0.711591 -4.4863 4.0596 2.18145 15.1718 -0.700113 4.17848 -1.02486 0.046356 25.8448 -50.7115 29.745 -1.27155 -17.465 -0.237699 154.287 81.5074 -158.573 -0.529163 -17.3815 -1.19582 1.30635 28.4831 -11.8186 0.711591 -4.4863 4.0596 0.0709432 -0.576983 0.0294033 
-17.3429 60.4733 -9.69199 3.104 -39.5414 27.4329 3.55271e-015 5.99393 0.287273 -7.92727 9.56988 -11.6463 -3.55271e-015 6.65865 -0.856112 -14.033 20.4875 -22.3653 0 8.65624 -1.42685 -0.821663 -49.8117 28.0248 0 3.80999 -0.190247 -9.26898 -1.17111 6.39825 -1.4963 7.5744 -1.52136 -11.658 -0.267578 18.625 -5.47506 -0.905672 0.485692 57.1228 0.48312 49.8706 -11.3069 -0.201091 0.618544 28.0713 -12.2947 76.1199 -9.61414 -0.254739 3.48553 0.178747 -55.0875 19.1732 0.176263 -0.07068 1.26622 -15.6874 50.412 18.5118 -1.04683 -0.546484 1.82182 -0.515941 0.557791 -1.56007 -0.993472 -0.621916 0.655506 -4.3271 5.93879 -14.9479 -2.64253 0.566363 2.4162 -23.6257 5.46676 -14.517 -1.39394 -0.635138 0.899356 39.8962 7.70359 -8.81726 -0.622395 -0.856016 0.402182 45.8626 8.24911 -10.4911 -3.20814 0.514427 1.52547 -0.840538 5.94953 -9.8241 -1.56545 -0.497974 0.68919 52.741 10.533 -13.0891 -0.679943 -1.17582 0.444246 44.4809 9.78113 -10.5176 -3.47877 0.200518 0.597719 16.3707 -0.644922 -5.84598 -1.28208 -0.53155 0.44672 37.8362 9.71796 -10.3213 -0.710288 -0.970167 0.4032 39.1355 9.91098 -10.7658 -3.42483 -0.278904 -0.240415 24.5433 -1.90442 -2.26371 -1.05787 -0.635999 0.156459 31.0685 9.47906 -7.89247 -0.42815 -0.754232 0.287187 30.9983 9.46352 -7.86992 1.4963 7.5744 -1.52136 12.1289 0.244999 1.85302 5.47506 -0.905672 0.485692 -64.736 4.10092 -10.4907 11.3069 -0.201091 0.618544 -35.8294 12.3366 -82.231 9.61414 -0.254739 3.48553 -45.4749 -31.0539 29.3818 -0.176263 -0.07068 1.26622 24.2782 38.4818 -35.502 1.04683 -0.546484 1.82182 -6.53183 -1.24821 -11.4632 0.993472 -0.621916 0.655506 6.45118 2.66722 11.8095 2.64253 0.566363 2.4162 -5.18979 4.48305 12.5249 1.39394 -0.635138 0.899356 -36.9452 6.7431 17.0314 0.622395 -0.856016 0.402182 -38.0065 6.76622 17.5559 3.20814 0.514427 1.52547 -1.48527 -0.683771 1.67105 1.56545 -0.497974 0.68919 -44.4869 8.35698 21.4002 0.679943 -1.17582 0.444246 -9.361 3.19899 3.9917 3.47877 0.200518 0.597719 -8.07665 -2.6376 5.99022 1.28208 -0.53155 0.44672 -14.7811 5.15018 7.29475 0.710288 -0.970167 0.4032 -16.2802 5.55277 8.08488 3.42483 -0.278904 -0.240415 11.7677 -11.3031 2.6014 1.05787 -0.635999 0.156459 -18.8959 6.82264 9.38292 0.42815 -0.754232 0.287187 -9.1883 3.76105 4.34943 -4.17848 -1.02486 0.046356 2.69262 -62.0243 -29.6455 1.27155 -17.465 -0.237699 33.9737 67.9325 -25.7085 0.529163 -17.3815 -1.19582 15.0706 12.3827 -12.1073 -0.711591 -4.4863 4.0596 2.15193 14.9807 -0.687282 4.17848 -1.02486 0.046356 25.7101 -50.6002 29.5943 -1.27155 -17.465 -0.237699 153.907 81.6582 -158.214 -0.529163 -17.3815 -1.19582 1.18808 28.3857 -11.7633 0.711591 -4.4863 4.0596 0.0688809 -0.561058 0.0285563 
